<?xml version="1.0" encoding="UTF-8"?>
<svg xmlns="http://www.w3.org/2000/svg" xmlns:xlink="http://www.w3.org/1999/xlink" width="25pt" height="25pt" viewBox="0 0 25 25" version="1.1">
<g id="surface1">
<path style=" stroke:none;fill-rule:nonzero;fill:rgb(0%,0%,0%);fill-opacity:1;" d="M 12.328125 0 C 7.40625 0 3.398438 4.007812 3.398438 8.929688 C 3.398438 15.042969 11.390625 24.015625 11.730469 24.394531 C 12.050781 24.75 12.609375 24.75 12.929688 24.394531 C 13.269531 24.015625 21.261719 15.042969 21.261719 8.929688 C 21.261719 4.007812 17.253906 0 12.328125 0 Z M 12.328125 13.425781 C 9.851562 13.425781 7.835938 11.40625 7.835938 8.929688 C 7.835938 6.453125 9.851562 4.4375 12.328125 4.4375 C 14.808594 4.4375 16.824219 6.453125 16.824219 8.929688 C 16.824219 11.40625 14.808594 13.425781 12.328125 13.425781 Z M 12.328125 13.425781 "/>
</g>
</svg>
