<?xml version="1.0" encoding="UTF-8"?>
<svg xmlns="http://www.w3.org/2000/svg" xmlns:xlink="http://www.w3.org/1999/xlink" width="50pt" height="50pt" viewBox="0 0 50 50" version="1.1">
<g id="surface1">
<path style=" stroke:none;fill-rule:nonzero;fill:rgb(20.392157%,59.607843%,85.882353%);fill-opacity:1;" d="M 25 0 C 15.015625 0 6.890625 8.125 6.890625 18.109375 C 6.890625 30.5 23.097656 48.691406 23.785156 49.460938 C 24.433594 50.179688 25.566406 50.179688 26.214844 49.460938 C 26.902344 48.691406 43.109375 30.5 43.109375 18.109375 C 43.109375 8.125 34.984375 0 25 0 Z M 25 27.21875 C 19.976562 27.21875 15.890625 23.132812 15.890625 18.109375 C 15.890625 13.085938 19.976562 8.996094 25 8.996094 C 30.023438 8.996094 34.109375 13.085938 34.109375 18.109375 C 34.109375 23.132812 30.023438 27.21875 25 27.21875 Z M 25 27.21875 "/>
</g>
</svg>
